[CENTER][IMG]http://kinkycyborg.com/wordpress/wp-content/uploads/2010/06/The-exorcist-blu-ray-book-cover-artwork.jpg[/IMG]



[CODE]The Exorcist Extended DC (1973) | m-HD | 480p | AC3 | Hindi |

General
Unique ID                                : 191896753237139028886824950655063447814 (0x905DF8677B61DBB9AAA43F0920E05906)

Format                                   : Matroska
Format version                           : Version 2
File size                                : 597 MiB
Duration                                 : 2h 6mn
Overall bit rate                         : 658 Kbps
Encoded date                             : UTC 2011-10-08 22:56:59
Writing application                      : mkvmerge v4.9.1 (\'Ich will\') built on Jul 11 2011 23:53:15
Writing library                          : libebml v1.2.1 + libmatroska v1.1.1

Video
ID                                       : 1
Format                                   : AVC
Format/Info                              : Advanced Video Codec
Format profile                           : High@L3.1
Format settings, CABAC                   : Yes
Format settings, ReFrames                : 5 frames
Codec ID                                 : V_MPEG4/ISO/AVC
Duration                                 : 2h 6mn
Bit rate                                 : 528 Kbps
Width                                    : 848 pixels
Height                                   : 368 pixels
Display aspect ratio                     : 2.35:1
Frame rate                               : 23.976 fps
Color space                              : YUV
Chroma subsampling                       : 4:2:0
Bit depth                                : 8 bits
Scan type                                : Progressive
Bits/(Pixel*Frame)                       : 0.071
Stream size                              : 469 MiB (79%)
Writing library                          : x264 core 116 r2074 2641b9e

Audio
ID                                       : 2
Format                                   : AC-3
Format/Info                              : Audio Coding 3
Mode extension                           : CM (complete main)
Codec ID                                 : A_AC3
Duration                                 : 2h 6mn
Bit rate mode                            : Constant
Bit rate                                 : 128 Kbps
Channel(s)                               : 2 channels
Channel positions                        : Front: L R
Sampling rate                            : 48.0 KHz
Bit depth                                : 16 bits
Compression mode                         : Lossy
Stream size                              : 116 MiB (19%)

[/CODE]


[IMG]http://i.imgur.com/in579.png[/IMG]

[IMG]http://img641.imageshack.us/img641/9523/theexorcistextendeddc19.jpg[/IMG]
[IMG]http://img41.imageshack.us/img41/9523/theexorcistextendeddc19.jpg[/IMG]
[IMG]http://img210.imageshack.us/img210/9523/theexorcistextendeddc19.jpg[/IMG]
[IMG]http://img12.imageshack.us/img12/9523/theexorcistextendeddc19.jpg[/IMG]
[IMG]http://img28.imageshack.us/img28/9523/theexorcistextendeddc19.jpg[/IMG]
[IMG]http://img94.imageshack.us/img94/9523/theexorcistextendeddc19.jpg[/IMG]
[IMG]http://img855.imageshack.us/img855/9523/theexorcistextendeddc19.jpg[/IMG]
[IMG]http://img195.imageshack.us/img195/9523/theexorcistextendeddc19.jpg[/IMG]
[IMG]http://img840.imageshack.us/img840/9523/theexorcistextendeddc19.jpg[/IMG]
[IMG]http://img810.imageshack.us/img810/9523/theexorcistextendeddc19.jpg[/IMG]

[/CENTER]
